<svg width="716" height="721" viewBox="0 0 716 721" fill="none" xmlns="http://www.w3.org/2000/svg">
<path d="M7.97274 406.726H88.9727C93.5727 406.726 97.9727 404.726 101.073 401.226L319.973 148.926L319.973 712.026C319.973 716.426 323.573 720.026 327.973 720.026H387.973C392.373 720.026 395.973 716.426 395.973 712.026L395.973 148.926L614.873 401.226C617.873 404.726 622.273 406.726 626.973 406.726L707.973 406.726C714.773 406.726 718.473 398.626 713.973 393.526L382.073 11.0265C379.073 7.56533 375.363 4.78951 371.197 2.88711C367.03 0.984705 362.503 0.000146869 357.923 0.000146869C353.342 0.000146869 348.815 0.984705 344.649 2.88711C340.482 4.78951 336.773 7.56533 333.773 11.0265L1.97274 393.526C-2.52726 398.726 1.17275 406.726 7.97274 406.726Z" fill="black"/>
</svg>
