<svg width="32" height="29" viewBox="0 0 32 29" fill="none" xmlns="http://www.w3.org/2000/svg">
<path d="M28.7685 3.16521L28.7681 3.16482C27.918 2.33143 26.9156 1.66914 25.8155 1.21398L25.8149 1.21371C24.674 0.739771 23.4502 0.497181 22.2148 0.500025L22.2137 0.500027C20.479 0.500026 18.7874 0.974988 17.3179 1.87148L17.3179 1.87149C16.9663 2.08595 16.6327 2.32128 16.3168 2.57749L16.0018 2.83297L15.6869 2.57749C15.371 2.32128 15.0374 2.08595 14.6858 1.87149L14.6858 1.87148C13.2162 0.974988 11.5247 0.500026 9.79001 0.500026C8.54 0.500026 7.33103 0.739241 6.18879 1.21371L6.18825 1.21394C5.0843 1.67099 4.08985 2.32807 3.23537 3.16497L3.23469 3.16563C2.38511 3.99457 1.70644 4.98216 1.23714 6.07242L28.7685 3.16521ZM28.7685 3.16521C29.6172 3.99531 30.2959 4.98292 30.7667 6.07278C31.2547 7.20685 31.5035 8.40955 31.5 9.64787V9.64929C31.5 10.8143 31.2621 12.0392 30.781 13.2971L30.7806 13.2982C30.3817 14.3488 29.7972 15.4486 29.0472 16.5681C27.8595 18.3387 26.2174 20.1985 24.1638 22.0944C20.7539 25.2399 17.3815 27.4109 17.247 27.4971L17.2469 27.4972L16.37 28.0596C16.3697 28.0598 16.3695 28.0599 16.3692 28.0601C16.1445 28.203 15.8549 28.2029 15.6304 28.0598C15.6302 28.0598 15.6301 28.0597 15.63 28.0596L14.7531 27.4972L14.7531 27.4971L14.7452 27.4922C14.6197 27.415 11.2436 25.2411 7.83638 22.0946L7.83632 22.0945C5.78267 20.1985 4.14044 18.3388 2.95273 16.5681C2.20337 15.4495 1.62204 14.3493 1.21895 13.2971L28.7685 3.16521ZM0.5 9.64929C0.5 8.40989 0.74906 7.20662 1.23713 6.07246L1.21886 13.2968C0.737856 12.039 0.5 10.8142 0.5 9.64929Z" stroke="#CF152D"/>
</svg>
