<svg width="50" height="26" viewBox="0 0 50 26" fill="none" xmlns="http://www.w3.org/2000/svg">
<rect x="0.2" y="0.2" width="49.6" height="2.07922" rx="1.03961" fill="#CF152D" stroke="#CF152D" stroke-width="0.4"/>
<rect x="0.2" y="23.4427" width="26.1625" height="2.07922" rx="1.03961" fill="#CF152D" stroke="#CF152D" stroke-width="0.4"/>
<rect x="0.2" y="12.5961" width="33.975" height="2.07922" rx="1.03961" fill="#CF152D" stroke="#CF152D" stroke-width="0.4"/>
<path d="M43.8942 23.4636C43.8942 24.865 42.4619 26 40.6971 26C38.9323 26 37.5 24.865 37.5 23.4636C37.5 22.0622 38.9323 20.9271 40.6971 20.9272C43.9941 20.9272 43.8942 19.3045 43.8942 23.4636Z" fill="#CF152D"/>
<path fill-rule="evenodd" clip-rule="evenodd" d="M43.8942 10.7814V23.4635H42.6154V10.7814H43.8942Z" fill="#CF152D"/>
<path d="M42.6154 10.5532C42.6155 10.2601 42.7181 9.97611 42.9055 9.74953C43.093 9.52295 43.3538 9.36775 43.6436 9.3103L47.6187 9.29707C47.8157 9.29706 47.9605 9.29707 48.179 9.31022C48.3625 9.35564 48.5336 9.44086 48.6799 9.55973C48.8262 9.6786 48.9441 9.82818 49.025 9.99767C49.106 10.1672 49.1481 10.3524 49.1482 10.5399V13.3179H42.6154V10.5532Z" fill="#CF152D"/>
</svg>
