<svg width="22" height="18" viewBox="0 0 22 18" fill="none" xmlns="http://www.w3.org/2000/svg">
<path d="M7.5354 12.6937L7.56145 12.7457L7.61139 12.7757C7.66327 12.8068 7.69149 12.8331 7.70684 12.8536C6.51614 14.3538 4.93698 15.1021 2.95082 15.1021H0.885246C0.721466 15.1021 0.566652 15.0379 0.415426 14.8867C0.2642 14.7355 0.2 14.5806 0.2 14.4169C0.2 14.2531 0.264199 14.0983 0.415426 13.947C0.566653 13.7958 0.721466 13.7316 0.885246 13.7316H2.95082C3.83297 13.7316 4.65048 13.4883 5.39905 13.004C6.03305 12.5937 6.53662 12.0713 6.9077 11.4383L7.5354 12.6937ZM12.5588 5.03818C11.9248 5.44841 11.4212 5.97083 11.0501 6.60389L10.4224 5.3485L10.4079 5.31947L10.385 5.29652C10.3401 5.25166 10.3115 5.21508 10.2944 5.18691C11.4851 3.68709 13.0502 2.94005 15.007 2.94005H18.5059H18.9766L18.6498 2.60122L17.5117 1.42089L17.5117 1.42087L17.5091 1.4183C17.3201 1.22932 17.2515 1.06642 17.2515 0.9274C17.2515 0.788379 17.3201 0.625477 17.5091 0.436504L17.3682 0.295558L17.5091 0.436503C17.6808 0.264848 17.8365 0.2 17.9789 0.2C18.1232 0.2 18.2944 0.266506 18.4957 0.441333L21.1836 3.1292C21.3418 3.31341 21.4042 3.47776 21.4042 3.62529C21.4042 3.77282 21.3418 3.93718 21.1836 4.12139L18.5012 6.80377C18.3016 6.95108 18.1359 7.00843 18 7.00843C17.7965 7.00843 17.6378 6.94274 17.5091 6.81408C17.3201 6.62511 17.2515 6.46221 17.2515 6.32318C17.2515 6.18416 17.3201 6.02126 17.5091 5.83229L17.5091 5.83231L17.5117 5.82969L18.6498 4.64937L18.9766 4.31054H18.5059H15.007C14.1249 4.31054 13.3074 4.55381 12.5588 5.03818ZM9.61571 11.7031L9.1555 10.9082L8.18901 8.93317L8.18904 8.93315L8.18749 8.93012L7.17578 6.94886L7.17581 6.94884L7.17413 6.94569C6.71132 6.07793 6.1271 5.41677 5.41748 4.97326C4.70721 4.52934 3.88257 4.31054 2.95082 4.31054H0.885246C0.721466 4.31054 0.566653 4.24634 0.415426 4.09511C0.264199 3.94389 0.2 3.78907 0.2 3.62529C0.2 3.46151 0.264199 3.3067 0.415426 3.15547C0.566653 3.00425 0.721466 2.94005 0.885246 2.94005H2.95082C4.12228 2.94005 5.19554 3.24594 6.17503 3.85812C7.15464 4.47038 7.88731 5.29149 8.37663 6.32449L8.37647 6.32457L8.38039 6.33203L8.80139 7.13191L8.80194 7.13296L9.81172 9.11049L10.7805 11.0903L10.7805 11.0903L10.7826 11.0944C11.1926 11.885 11.7791 12.5225 12.5392 13.0049C13.301 13.4884 14.1249 13.7316 15.007 13.7316H18.5059H18.9766L18.6498 13.3928L17.5117 12.2125L17.5117 12.2124L17.5091 12.2099C17.3201 12.0209 17.2515 11.858 17.2515 11.719C17.2515 11.5799 17.3201 11.417 17.5091 11.2281C17.6808 11.0564 17.8365 10.9916 17.9789 10.9916C18.1235 10.9916 18.2951 11.0583 18.4969 11.2339L21.2689 13.9219C21.4263 14.1056 21.4885 14.2696 21.4885 14.4169C21.4885 14.5644 21.4261 14.7287 21.2679 14.913L18.5808 17.6C18.4164 17.7392 18.2523 17.8 18.0843 17.8C17.8809 17.8 17.7221 17.7343 17.5934 17.6056C17.4044 17.4167 17.3358 17.2538 17.3358 17.1148C17.3358 16.9757 17.4044 16.8128 17.5934 16.6239L18.7737 15.4435L19.1152 15.1021H18.6323H15.0913C13.9199 15.1021 12.8541 14.7962 11.8893 14.1847C10.9218 13.5715 10.1658 12.7478 9.61961 11.7101L9.61975 11.7101L9.61571 11.7031Z" fill="#CF152D" stroke="#CF152D" stroke-width="0.4"/>
</svg>
