<svg width="20" height="21" viewBox="0 0 20 21" fill="none" xmlns="http://www.w3.org/2000/svg">
<path d="M16.1786 3.35274L16.1803 3.35273C16.6447 3.3488 17.1053 3.43638 17.5358 3.61047C17.9663 3.78455 18.3583 4.04174 18.6895 4.36734C19.0206 4.69293 19.2844 5.08057 19.4657 5.5081C19.6469 5.93537 19.7422 6.39411 19.7462 6.85819V9.44962C19.7462 9.67492 19.6567 9.89099 19.4974 10.0503C19.3381 10.2096 19.122 10.2991 18.8967 10.2991C18.6714 10.2991 18.4554 10.2096 18.2961 10.0503C18.1368 9.89099 18.0473 9.67492 18.0473 9.44962V6.85741H18.0473L18.0472 6.8536C18.0426 6.61232 17.9905 6.37431 17.8939 6.15317C17.7973 5.93203 17.6581 5.73208 17.4842 5.56475C17.3104 5.39743 17.1052 5.266 16.8805 5.17797C16.6564 5.09019 16.4173 5.04729 16.1767 5.0517H3.58482H3.09932L3.44394 5.39367L4.80827 6.7475L4.8083 6.74753C4.88792 6.8265 4.95112 6.92045 4.99424 7.02397C5.03737 7.12749 5.05958 7.23852 5.05958 7.35066C5.05958 7.4628 5.03737 7.57383 4.99424 7.67735C4.95112 7.78087 4.88792 7.87482 4.8083 7.95379L4.80714 7.95495C4.72817 8.03457 4.63422 8.09777 4.5307 8.1409C4.42718 8.18402 4.31615 8.20623 4.20401 8.20623C4.09187 8.20623 3.98084 8.18402 3.87732 8.1409C3.7738 8.09777 3.67985 8.03457 3.60088 7.95495L3.6003 7.95437L0.451857 4.80593L0.451275 4.80535C0.371655 4.72638 0.308458 4.63243 0.265331 4.52891C0.222204 4.42539 0.2 4.31436 0.2 4.20222C0.2 4.09008 0.222204 3.97904 0.265331 3.87553C0.308458 3.77201 0.371654 3.67806 0.451276 3.59909L0.451856 3.59851L3.6003 0.450065C3.76041 0.289951 3.97757 0.2 4.20401 0.2C4.43044 0.2 4.64761 0.289951 4.80772 0.450065C4.96783 0.610179 5.05779 0.82734 5.05779 1.05378C5.05779 1.28007 4.96794 1.4971 4.80802 1.65719C4.80792 1.65729 4.80782 1.65739 4.80772 1.65749L3.44394 3.01077L3.09932 3.35274H3.58482L16.1786 3.35274ZM16.3675 15.9465H16.853L16.5084 15.6045L15.1446 14.2513C15.1445 14.2512 15.1445 14.2511 15.1444 14.2511C14.9844 14.091 14.8945 13.8739 14.8945 13.6475C14.8945 13.4211 14.9845 13.204 15.1446 13.0438C15.3047 12.8837 15.5219 12.7938 15.7483 12.7938C15.9747 12.7938 16.1919 12.8837 16.352 13.0438L19.5005 16.1923L19.501 16.1929C19.5807 16.2718 19.6439 16.3658 19.687 16.4693C19.7301 16.5728 19.7523 16.6838 19.7523 16.796C19.7523 16.9081 19.7301 17.0192 19.687 17.1227C19.6439 17.2262 19.5807 17.3201 19.501 17.3991L19.5005 17.3997L16.352 20.5481L16.3514 20.5487C16.2725 20.6283 16.1785 20.6915 16.075 20.7347C15.9715 20.7778 15.8604 20.8 15.7483 20.8C15.6362 20.8 15.5251 20.7778 15.4216 20.7347C15.3181 20.6915 15.2241 20.6283 15.1452 20.5487L15.144 20.5476C15.0644 20.4686 15.0012 20.3746 14.9581 20.2711C14.9149 20.1676 14.8927 20.0566 14.8927 19.9444C14.8927 19.8323 14.9149 19.7213 14.9581 19.6177C15.0012 19.5142 15.0644 19.4203 15.144 19.3413L15.144 19.3413L16.5084 17.9874L16.853 17.6455H16.3675L3.77372 17.6455L3.77203 17.6455C3.30765 17.6494 2.84705 17.5618 2.41652 17.3877C1.98598 17.2137 1.59396 16.9565 1.26283 16.6309C0.931695 16.3053 0.66794 15.9176 0.486622 15.4901C0.305412 15.0628 0.210088 14.604 0.206085 14.14V11.5486C0.206085 11.3233 0.295584 11.1072 0.454892 10.9479C0.614201 10.7886 0.83027 10.6991 1.05557 10.6991C1.28086 10.6991 1.49693 10.7886 1.65624 10.9479C1.81555 11.1072 1.90505 11.3233 1.90505 11.5486V14.1408H1.90501L1.90508 14.1446C1.90968 14.3859 1.96176 14.6239 2.05836 14.845C2.15496 15.0662 2.29418 15.2661 2.46807 15.4335C2.64196 15.6008 2.84711 15.7322 3.0718 15.8202C3.29588 15.908 3.53502 15.9509 3.77563 15.9465H16.3675Z" fill="#CF152D" stroke="#CF152D" stroke-width="0.4"/>
</svg>
